<?xml version="1.0" encoding="utf-8"?>
<!-- Generator: Adobe Illustrator 17.0.0, SVG Export Plug-In . SVG Version: 6.00 Build 0)  -->
<!DOCTYPE svg PUBLIC "-//W3C//DTD SVG 1.1//EN" "http://www.w3.org/Graphics/SVG/1.1/DTD/svg11.dtd">
<svg version="1.1" id="图层_1" xmlns="http://www.w3.org/2000/svg" xmlns:xlink="http://www.w3.org/1999/xlink" x="0px" y="0px"
	 width="595.28px" height="532.293px" viewBox="0 0 595.28 532.293" enable-background="new 0 0 595.28 532.293"
	 xml:space="preserve">
<g>
	<path fill="#FFFFFF" d="M255.98,265.283c23.262-23.352,60.99-23.352,84.252,0c23.262,23.352,23.262,61.22,0,84.572
		c-23.262,23.352-60.99,23.352-84.252,0C232.71,326.495,232.71,288.636,255.98,265.283z M298.106,155.766
		c-160.398,0-287.187,151.799-287.187,151.799s126.789,151.799,287.187,151.799c34.118,0,66.701-6.884,96.88-17.691l-39.665-39.821
		c-42.34,25.929-98.357,20.538-134.978-16.222c-42.955-43.111-42.955-113.012,0-156.131c42.955-43.111,112.594-43.111,155.54,0
		c36.62,36.76,41.995,92.983,16.165,135.487l53.753,53.966c83.998-44.965,139.491-111.387,139.491-111.387
		S458.504,155.766,298.106,155.766z"/>
</g>
</svg>
