<?xml version="1.0" encoding="utf-8"?>
<!-- Generator: Adobe Illustrator 17.0.0, SVG Export Plug-In . SVG Version: 6.00 Build 0)  -->
<!DOCTYPE svg PUBLIC "-//W3C//DTD SVG 1.1//EN" "http://www.w3.org/Graphics/SVG/1.1/DTD/svg11.dtd">
<svg version="1.1" id="图层_1" xmlns="http://www.w3.org/2000/svg" xmlns:xlink="http://www.w3.org/1999/xlink" x="0px" y="0px"
	 width="595.28px" height="532.293px" viewBox="0 0 595.28 532.293" enable-background="new 0 0 595.28 532.293"
	 xml:space="preserve">
<g transform="translate(0,-952.36218)">
	<path fill="#FFFFFF" d="M108.55,966.045c-29.213,0-52.765,26.256-52.765,58.901v387.064c0,32.645,23.552,58.901,52.765,58.901
		h371.287c16.285,0,30.837-8.152,40.494-21.036H102.94c-15.338,0-27.698-13.553-27.698-30.327v-44.526
		c0-16.773,12.36-30.327,27.698-30.327h429.662v-319.748c0-32.645-23.552-58.901-52.765-58.901H108.55z M294.193,1024.421
		c13.101,0,23.666,11.815,23.666,26.646v12.096c5.922,1.742,11.689,4.081,17.004,7.012l8.59-8.59
		c5.243-5.244,11.787-8.015,18.231-8.414c6.444-0.4,12.723,1.679,17.355,6.311c9.263,9.264,8.383,25.274-2.104,35.761l-8.414,8.414
		c2.929,5.317,5.096,11.08,6.837,17.004h12.096c14.831,0,26.821,10.565,26.821,23.666c0,13.101-11.99,23.666-26.821,23.666h-12.096
		c-1.749,5.951-4.064,11.667-7.012,17.004l8.59,8.589c10.487,10.487,11.367,26.323,2.104,35.586
		c-9.263,9.264-25.099,8.384-35.586-2.104l-8.59-8.59c-5.34,2.95-11.05,5.438-17.004,7.188v11.92
		c0,14.831-10.565,26.821-23.666,26.821c-13.1,0-23.666-11.99-23.666-26.821v-11.92c-5.956-1.75-11.662-4.237-17.004-7.188
		l-8.59,8.59c-10.487,10.487-26.323,11.368-35.586,2.104c-9.263-9.263-8.383-25.099,2.104-35.586l8.59-8.589
		c-2.95-5.337-5.261-11.053-7.012-17.004h-12.096c-14.831,0-26.821-10.565-26.821-23.666c0-13.1,11.99-23.666,26.821-23.666h12.096
		c1.743-5.924,3.905-11.687,6.837-17.004l-8.414-8.414c-10.487-10.487-11.367-26.498-2.104-35.761
		c4.053-4.053,9.316-6.119,14.901-6.311c7.18-0.247,14.787,2.516,20.685,8.414l8.59,8.59c5.317-2.931,11.08-5.27,17.004-7.012
		v-12.096C270.528,1036.236,281.093,1024.421,294.193,1024.421L294.193,1024.421z M294.193,1094.716
		c-27.67,0-49.785,21.94-49.785,49.61c0,27.67,22.115,49.785,49.785,49.785c27.67,0,49.785-22.115,49.785-49.785
		C343.979,1116.656,321.864,1094.716,294.193,1094.716z"/>
</g>
</svg>
