<?xml version="1.0" encoding="utf-8"?>
<!-- Generator: Adobe Illustrator 17.0.0, SVG Export Plug-In . SVG Version: 6.00 Build 0)  -->
<!DOCTYPE svg PUBLIC "-//W3C//DTD SVG 1.1//EN" "http://www.w3.org/Graphics/SVG/1.1/DTD/svg11.dtd">
<svg version="1.1" id="图层_1" xmlns="http://www.w3.org/2000/svg" xmlns:xlink="http://www.w3.org/1999/xlink" x="0px" y="0px"
	 width="595.28px" height="532.293px" viewBox="0 0 595.28 532.293" enable-background="new 0 0 595.28 532.293"
	 xml:space="preserve">
<g>
	<circle fill="#8DC9E9" cx="298.357" cy="267.055" r="260.105"/>
	<g>
		<g>
			<rect x="296.024" y="370.414" fill="#FFFFFF" width="10.416" height="41.726"/>
		</g>
		<g>
			
				<rect x="232.662" y="353.365" transform="matrix(-0.8651 -0.5016 0.5016 -0.8651 255.9401 817.2844)" fill="#FFFFFF" width="10.416" height="41.722"/>
		</g>
		<g>
			
				<rect x="171.098" y="196.556" transform="matrix(-0.8655 -0.5009 0.5009 -0.8655 257.0408 472.5447)" fill="#FFFFFF" width="41.726" height="10.416"/>
		</g>
		<g>
			
				<rect x="217.319" y="150.403" transform="matrix(-0.4994 -0.8664 0.8664 -0.4994 222.319 439.6751)" fill="#FFFFFF" width="41.719" height="10.415"/>
		</g>
		<g>
			
				<rect x="343.436" y="369.212" transform="matrix(-0.4994 -0.8664 0.8664 -0.4994 221.8363 877.022)" fill="#FFFFFF" width="41.727" height="10.416"/>
		</g>
		<g>
			<rect x="154.11" y="259.806" fill="#FFFFFF" width="41.726" height="10.416"/>
		</g>
		<g>
			
				<rect x="185.427" y="306.575" transform="matrix(-0.497 -0.8678 0.8678 -0.497 1.2357 655.6065)" fill="#FFFFFF" width="10.42" height="41.74"/>
		</g>
		<path fill="#FFFFFF" d="M301.232,85.603c-98.926,0-179.411,80.481-179.411,179.411s80.481,179.415,179.411,179.415
			c98.934,0,179.42-80.481,179.42-179.415C480.652,166.088,400.166,85.603,301.232,85.603z M379.239,140.161l-20.844,36.147
			l-9.02-5.204l20.844-36.147L379.239,140.161z M426.089,187.016l5.204,9.024l-36.143,20.844l-5.204-9.024L426.089,187.016z
			 M406.633,259.806h41.726v10.416h-41.726V259.806z M301.232,419.431c-85.144,0-154.413-69.27-154.413-154.417
			c0-83.398,66.47-151.518,149.205-154.28v154.28c0,1.825,0.954,3.516,2.516,4.458l132.036,79.74
			C402.991,391.446,355.332,419.431,301.232,419.431z"/>
	</g>
</g>
</svg>
